<mxfile host="drawio-plugin" modified="2024-03-15T10:42:39.236Z" agent="5.0 (Windows NT 10.0; Win64; x64) AppleWebKit/537.36 (KHTML, like Gecko) Chrome/111.0.0.0 Safari/537.36" etag="wF3m7oDQ_rPvhJPkPoVW" version="20.5.3" type="embed"><diagram id="23iRSUPoRavnBvh4doch" name="Page-1"><mxGraphModel dx="264" dy="424" grid="1" gridSize="10" guides="1" tooltips="1" connect="1" arrows="1" fold="1" page="1" pageScale="1" pageWidth="827" pageHeight="1169" math="0" shadow="0"><root><mxCell id="0"/><mxCell id="1" parent="0"/><mxCell id="2" value="&lt;p style=&quot;margin:0px;margin-top:4px;text-align:center;&quot;&gt;&lt;i&gt;&amp;lt;&amp;lt;Interface&amp;gt;&amp;gt;&lt;/i&gt;&lt;br&gt;&lt;b&gt;Appliance&lt;/b&gt;&lt;/p&gt;&lt;hr size=&quot;1&quot;&gt;&lt;p style=&quot;margin:0px;margin-left:4px;&quot;&gt;+ turnOn()&lt;br&gt;+ use()&lt;/p&gt;&lt;p style=&quot;margin:0px;margin-left:4px;&quot;&gt;+ turnOff()&lt;/p&gt;" style="verticalAlign=top;align=left;overflow=fill;fontSize=12;fontFamily=Helvetica;html=1;" parent="1" vertex="1"><mxGeometry x="500" y="240" width="190" height="100" as="geometry"/></mxCell><mxCell id="3" value="Client" style="swimlane;fontStyle=1;align=center;verticalAlign=top;childLayout=stackLayout;horizontal=1;startSize=26;horizontalStack=0;resizeParent=1;resizeParentMax=0;resizeLast=0;collapsible=1;marginBottom=0;" parent="1" vertex="1"><mxGeometry x="500" y="40" width="220" height="150" as="geometry"/></mxCell><mxCell id="4" value="- brand: String&#10;- applianceFactory: ApplianceFactory&#10;- appliances: List&lt;Appliance&gt;" style="text;strokeColor=none;fillColor=none;align=left;verticalAlign=top;spacingLeft=4;spacingRight=4;overflow=hidden;rotatable=0;points=[[0,0.5],[1,0.5]];portConstraint=eastwest;" parent="3" vertex="1"><mxGeometry y="26" width="220" height="54" as="geometry"/></mxCell><mxCell id="5" value="" style="line;strokeWidth=1;fillColor=none;align=left;verticalAlign=middle;spacingTop=-1;spacingLeft=3;spacingRight=3;rotatable=0;labelPosition=right;points=[];portConstraint=eastwest;strokeColor=inherit;" parent="3" vertex="1"><mxGeometry y="80" width="220" height="8" as="geometry"/></mxCell><mxCell id="6" value="+ makePurchases()&#10;+ takeAllHome()&#10;+ testPurchases()" style="text;strokeColor=none;fillColor=none;align=left;verticalAlign=top;spacingLeft=4;spacingRight=4;overflow=hidden;rotatable=0;points=[[0,0.5],[1,0.5]];portConstraint=eastwest;" parent="3" vertex="1"><mxGeometry y="88" width="220" height="62" as="geometry"/></mxCell><mxCell id="18" value="&lt;p style=&quot;margin:0px;margin-top:4px;text-align:center;&quot;&gt;&lt;i&gt;&amp;lt;&amp;lt;Interface&amp;gt;&amp;gt;&lt;/i&gt;&lt;br&gt;&lt;b&gt;ApplianceFactory&lt;/b&gt;&lt;/p&gt;&lt;hr size=&quot;1&quot;&gt;&lt;p style=&quot;margin:0px;margin-left:4px;&quot;&gt;+ createFridge(): Appliance&lt;br&gt;+ createGasStove(): Appliance&lt;/p&gt;&lt;p style=&quot;margin:0px;margin-left:4px;&quot;&gt;+ createMicrowaveOven() : Appliance&lt;/p&gt;&lt;p style=&quot;margin:0px;margin-left:4px;&quot;&gt;+ createVacuumCleaner(): Appliance&lt;/p&gt;&lt;p style=&quot;margin:0px;margin-left:4px;&quot;&gt;+ createWashingMachine(): Appliance&lt;/p&gt;" style="verticalAlign=top;align=left;overflow=fill;fontSize=12;fontFamily=Helvetica;html=1;" parent="1" vertex="1"><mxGeometry x="140" y="40" width="220" height="130" as="geometry"/></mxCell><mxCell id="22" value="SamsungFactoty" style="swimlane;fontStyle=0;childLayout=stackLayout;horizontal=1;startSize=26;fillColor=none;horizontalStack=0;resizeParent=1;resizeParentMax=0;resizeLast=0;collapsible=1;marginBottom=0;" parent="1" vertex="1"><mxGeometry x="40" y="240" width="220" height="110" as="geometry"/></mxCell><mxCell id="23" value="+ createFridge(): Appliance&#10;+ createGasStove(): Appliance&#10;+ createMicrowaveOven() : Appliance&#10;+ createVacuumCleaner(): Appliance&#10;+ createWashingMachine(): Appliance" style="text;strokeColor=none;fillColor=none;align=left;verticalAlign=top;spacingLeft=4;spacingRight=4;overflow=hidden;rotatable=0;points=[[0,0.5],[1,0.5]];portConstraint=eastwest;" parent="22" vertex="1"><mxGeometry y="26" width="220" height="84" as="geometry"/></mxCell><mxCell id="34" value="SiemensFactoty" style="swimlane;fontStyle=0;childLayout=stackLayout;horizontal=1;startSize=26;fillColor=none;horizontalStack=0;resizeParent=1;resizeParentMax=0;resizeLast=0;collapsible=1;marginBottom=0;" parent="1" vertex="1"><mxGeometry x="40" y="370" width="220" height="110" as="geometry"/></mxCell><mxCell id="35" value="+ createFridge(): Appliance&#10;+ createGasStove(): Appliance&#10;+ createMicrowaveOven() : Appliance&#10;+ createVacuumCleaner(): Appliance&#10;+ createWashingMachine(): Appliance" style="text;strokeColor=none;fillColor=none;align=left;verticalAlign=top;spacingLeft=4;spacingRight=4;overflow=hidden;rotatable=0;points=[[0,0.5],[1,0.5]];portConstraint=eastwest;" parent="34" vertex="1"><mxGeometry y="26" width="220" height="84" as="geometry"/></mxCell><mxCell id="36" value="WhirlpoolFactory" style="swimlane;fontStyle=0;childLayout=stackLayout;horizontal=1;startSize=26;fillColor=none;horizontalStack=0;resizeParent=1;resizeParentMax=0;resizeLast=0;collapsible=1;marginBottom=0;" parent="1" vertex="1"><mxGeometry x="40" y="500" width="220" height="110" as="geometry"/></mxCell><mxCell id="37" value="+ createFridge(): Appliance&#10;+ createGasStove(): Appliance&#10;+ createMicrowaveOven() : Appliance&#10;+ createVacuumCleaner(): Appliance&#10;+ createWashingMachine(): Appliance" style="text;strokeColor=none;fillColor=none;align=left;verticalAlign=top;spacingLeft=4;spacingRight=4;overflow=hidden;rotatable=0;points=[[0,0.5],[1,0.5]];portConstraint=eastwest;" parent="36" vertex="1"><mxGeometry y="26" width="220" height="84" as="geometry"/></mxCell><mxCell id="58" value="SamsungFridge" style="swimlane;fontStyle=1;align=center;verticalAlign=top;childLayout=stackLayout;horizontal=1;startSize=130;horizontalStack=0;resizeParent=1;resizeParentMax=0;resizeLast=0;collapsible=1;marginBottom=0;" parent="1" vertex="1"><mxGeometry x="640" y="400" width="170" height="30" as="geometry"/></mxCell><mxCell id="62" value="SamsungGasStove" style="swimlane;fontStyle=1;align=center;verticalAlign=top;childLayout=stackLayout;horizontal=1;startSize=130;horizontalStack=0;resizeParent=1;resizeParentMax=0;resizeLast=0;collapsible=1;marginBottom=0;" parent="1" vertex="1"><mxGeometry x="640" y="450" width="170" height="30" as="geometry"/></mxCell><mxCell id="63" value="SamsungMicrowaveOven" style="swimlane;fontStyle=1;align=center;verticalAlign=top;childLayout=stackLayout;horizontal=1;startSize=130;horizontalStack=0;resizeParent=1;resizeParentMax=0;resizeLast=0;collapsible=1;marginBottom=0;" parent="1" vertex="1"><mxGeometry x="640" y="500" width="170" height="30" as="geometry"/></mxCell><mxCell id="64" value="SamsungVacuumCleaner" style="swimlane;fontStyle=1;align=center;verticalAlign=top;childLayout=stackLayout;horizontal=1;startSize=130;horizontalStack=0;resizeParent=1;resizeParentMax=0;resizeLast=0;collapsible=1;marginBottom=0;" parent="1" vertex="1"><mxGeometry x="640" y="550" width="170" height="30" as="geometry"/></mxCell><mxCell id="65" value="SamsungWashingMachine" style="swimlane;fontStyle=1;align=center;verticalAlign=top;childLayout=stackLayout;horizontal=1;startSize=130;horizontalStack=0;resizeParent=1;resizeParentMax=0;resizeLast=0;collapsible=1;marginBottom=0;" parent="1" vertex="1"><mxGeometry x="640" y="600" width="170" height="30" as="geometry"/></mxCell><mxCell id="66" value="SiemensFridge" style="swimlane;fontStyle=1;align=center;verticalAlign=top;childLayout=stackLayout;horizontal=1;startSize=130;horizontalStack=0;resizeParent=1;resizeParentMax=0;resizeLast=0;collapsible=1;marginBottom=0;" parent="1" vertex="1"><mxGeometry x="390" y="400" width="170" height="30" as="geometry"/></mxCell><mxCell id="67" value="SiemensGasStove" style="swimlane;fontStyle=1;align=center;verticalAlign=top;childLayout=stackLayout;horizontal=1;startSize=130;horizontalStack=0;resizeParent=1;resizeParentMax=0;resizeLast=0;collapsible=1;marginBottom=0;" parent="1" vertex="1"><mxGeometry x="390" y="450" width="170" height="30" as="geometry"/></mxCell><mxCell id="68" value="SiemensMicrowaveOven" style="swimlane;fontStyle=1;align=center;verticalAlign=top;childLayout=stackLayout;horizontal=1;startSize=130;horizontalStack=0;resizeParent=1;resizeParentMax=0;resizeLast=0;collapsible=1;marginBottom=0;" parent="1" vertex="1"><mxGeometry x="390" y="500" width="170" height="30" as="geometry"/></mxCell><mxCell id="69" value="SiemensVacuumCleaner" style="swimlane;fontStyle=1;align=center;verticalAlign=top;childLayout=stackLayout;horizontal=1;startSize=130;horizontalStack=0;resizeParent=1;resizeParentMax=0;resizeLast=0;collapsible=1;marginBottom=0;" parent="1" vertex="1"><mxGeometry x="390" y="550" width="170" height="30" as="geometry"/></mxCell><mxCell id="70" value="SiemensWashingMachine" style="swimlane;fontStyle=1;align=center;verticalAlign=top;childLayout=stackLayout;horizontal=1;startSize=130;horizontalStack=0;resizeParent=1;resizeParentMax=0;resizeLast=0;collapsible=1;marginBottom=0;" parent="1" vertex="1"><mxGeometry x="390" y="600" width="170" height="30" as="geometry"/></mxCell><mxCell id="71" value="" style="endArrow=block;dashed=1;endFill=0;endSize=12;html=1;rounded=0;entryX=0.526;entryY=1;entryDx=0;entryDy=0;entryPerimeter=0;" parent="1" target="2" edge="1"><mxGeometry width="160" relative="1" as="geometry"><mxPoint x="600" y="900" as="sourcePoint"/><mxPoint x="584" y="420" as="targetPoint"/></mxGeometry></mxCell><mxCell id="76" value="" style="endArrow=block;dashed=1;endFill=0;endSize=12;html=1;rounded=0;exitX=1;exitY=0.5;exitDx=0;exitDy=0;" parent="1" source="70" edge="1"><mxGeometry width="160" relative="1" as="geometry"><mxPoint x="500" y="590" as="sourcePoint"/><mxPoint x="600" y="615" as="targetPoint"/></mxGeometry></mxCell><mxCell id="78" value="" style="endArrow=block;dashed=1;endFill=0;endSize=12;html=1;rounded=0;exitX=1;exitY=0.5;exitDx=0;exitDy=0;" parent="1" source="69" edge="1"><mxGeometry width="160" relative="1" as="geometry"><mxPoint x="570" y="625" as="sourcePoint"/><mxPoint x="600" y="565" as="targetPoint"/></mxGeometry></mxCell><mxCell id="79" value="" style="endArrow=block;dashed=1;endFill=0;endSize=12;html=1;rounded=0;exitX=1;exitY=0.5;exitDx=0;exitDy=0;" parent="1" source="68" edge="1"><mxGeometry width="160" relative="1" as="geometry"><mxPoint x="570" y="575" as="sourcePoint"/><mxPoint x="600" y="515" as="targetPoint"/></mxGeometry></mxCell><mxCell id="80" value="" style="endArrow=block;dashed=1;endFill=0;endSize=12;html=1;rounded=0;exitX=1;exitY=0.5;exitDx=0;exitDy=0;" parent="1" source="67" edge="1"><mxGeometry width="160" relative="1" as="geometry"><mxPoint x="570" y="525" as="sourcePoint"/><mxPoint x="600" y="465" as="targetPoint"/></mxGeometry></mxCell><mxCell id="81" value="" style="endArrow=block;dashed=1;endFill=0;endSize=12;html=1;rounded=0;exitX=1;exitY=0.5;exitDx=0;exitDy=0;" parent="1" source="66" edge="1"><mxGeometry width="160" relative="1" as="geometry"><mxPoint x="570" y="475" as="sourcePoint"/><mxPoint x="600" y="415" as="targetPoint"/></mxGeometry></mxCell><mxCell id="82" value="WhirlpoolFridge" style="swimlane;fontStyle=1;align=center;verticalAlign=top;childLayout=stackLayout;horizontal=1;startSize=130;horizontalStack=0;resizeParent=1;resizeParentMax=0;resizeLast=0;collapsible=1;marginBottom=0;" parent="1" vertex="1"><mxGeometry x="640" y="680" width="170" height="30" as="geometry"/></mxCell><mxCell id="83" value="WhirlpoolGasStove" style="swimlane;fontStyle=1;align=center;verticalAlign=top;childLayout=stackLayout;horizontal=1;startSize=130;horizontalStack=0;resizeParent=1;resizeParentMax=0;resizeLast=0;collapsible=1;marginBottom=0;" parent="1" vertex="1"><mxGeometry x="640" y="730" width="170" height="30" as="geometry"><mxRectangle x="640" y="730" width="150" height="130" as="alternateBounds"/></mxGeometry></mxCell><mxCell id="84" value="WhirlpoolMicrowaveOven" style="swimlane;fontStyle=1;align=center;verticalAlign=top;childLayout=stackLayout;horizontal=1;startSize=130;horizontalStack=0;resizeParent=1;resizeParentMax=0;resizeLast=0;collapsible=1;marginBottom=0;" parent="1" vertex="1" collapsed="1"><mxGeometry x="640" y="780" width="170" height="30" as="geometry"><mxRectangle x="640" y="780" width="170" height="30" as="alternateBounds"/></mxGeometry></mxCell><mxCell id="85" value="WhirlpoolVacuumCleaner" style="swimlane;fontStyle=1;align=center;verticalAlign=top;childLayout=stackLayout;horizontal=1;startSize=130;horizontalStack=0;resizeParent=1;resizeParentMax=0;resizeLast=0;collapsible=1;marginBottom=0;" parent="1" vertex="1"><mxGeometry x="640" y="830" width="170" height="30" as="geometry"/></mxCell><mxCell id="86" value="WhirlpoolWashingMachine" style="swimlane;fontStyle=1;align=center;verticalAlign=top;childLayout=stackLayout;horizontal=1;startSize=130;horizontalStack=0;resizeParent=1;resizeParentMax=0;resizeLast=0;collapsible=1;marginBottom=0;" parent="1" vertex="1"><mxGeometry x="640" y="880" width="170" height="30" as="geometry"/></mxCell><mxCell id="87" value="" style="endArrow=block;dashed=1;endFill=0;endSize=12;html=1;rounded=0;exitX=0;exitY=0.5;exitDx=0;exitDy=0;" parent="1" source="65" edge="1"><mxGeometry width="160" relative="1" as="geometry"><mxPoint x="630" y="620" as="sourcePoint"/><mxPoint x="600" y="615" as="targetPoint"/></mxGeometry></mxCell><mxCell id="88" value="" style="endArrow=block;dashed=1;endFill=0;endSize=12;html=1;rounded=0;exitX=0;exitY=0.5;exitDx=0;exitDy=0;" parent="1" source="64" edge="1"><mxGeometry width="160" relative="1" as="geometry"><mxPoint x="650" y="625" as="sourcePoint"/><mxPoint x="600" y="565" as="targetPoint"/></mxGeometry></mxCell><mxCell id="89" value="" style="endArrow=block;dashed=1;endFill=0;endSize=12;html=1;rounded=0;exitX=0;exitY=0.5;exitDx=0;exitDy=0;" parent="1" source="63" edge="1"><mxGeometry width="160" relative="1" as="geometry"><mxPoint x="650" y="575" as="sourcePoint"/><mxPoint x="600" y="515" as="targetPoint"/></mxGeometry></mxCell><mxCell id="90" value="" style="endArrow=block;dashed=1;endFill=0;endSize=12;html=1;rounded=0;exitX=0;exitY=0.5;exitDx=0;exitDy=0;" parent="1" source="62" edge="1"><mxGeometry width="160" relative="1" as="geometry"><mxPoint x="650" y="525" as="sourcePoint"/><mxPoint x="600" y="465" as="targetPoint"/></mxGeometry></mxCell><mxCell id="91" value="" style="endArrow=block;dashed=1;endFill=0;endSize=12;html=1;rounded=0;exitX=0;exitY=0.5;exitDx=0;exitDy=0;" parent="1" source="58" edge="1"><mxGeometry width="160" relative="1" as="geometry"><mxPoint x="650" y="475" as="sourcePoint"/><mxPoint x="600" y="415" as="targetPoint"/></mxGeometry></mxCell><mxCell id="93" value="" style="endArrow=block;dashed=1;endFill=0;endSize=12;html=1;rounded=0;exitX=0;exitY=0.5;exitDx=0;exitDy=0;" parent="1" source="82" edge="1"><mxGeometry width="160" relative="1" as="geometry"><mxPoint x="650" y="625" as="sourcePoint"/><mxPoint x="600" y="695" as="targetPoint"/></mxGeometry></mxCell><mxCell id="94" value="" style="endArrow=block;dashed=1;endFill=0;endSize=12;html=1;rounded=0;exitX=0;exitY=0.5;exitDx=0;exitDy=0;" parent="1" source="83" edge="1"><mxGeometry width="160" relative="1" as="geometry"><mxPoint x="650" y="705" as="sourcePoint"/><mxPoint x="600" y="745" as="targetPoint"/></mxGeometry></mxCell><mxCell id="95" value="" style="endArrow=block;dashed=1;endFill=0;endSize=12;html=1;rounded=0;exitX=0;exitY=0.5;exitDx=0;exitDy=0;" parent="1" source="84" edge="1"><mxGeometry width="160" relative="1" as="geometry"><mxPoint x="650" y="755" as="sourcePoint"/><mxPoint x="600" y="795" as="targetPoint"/></mxGeometry></mxCell><mxCell id="96" value="" style="endArrow=block;dashed=1;endFill=0;endSize=12;html=1;rounded=0;exitX=0;exitY=0.5;exitDx=0;exitDy=0;" parent="1" source="85" edge="1"><mxGeometry width="160" relative="1" as="geometry"><mxPoint x="650" y="805" as="sourcePoint"/><mxPoint x="600" y="845" as="targetPoint"/></mxGeometry></mxCell><mxCell id="97" value="" style="endArrow=block;dashed=1;endFill=0;endSize=12;html=1;rounded=0;exitX=0;exitY=0.5;exitDx=0;exitDy=0;" parent="1" source="86" edge="1"><mxGeometry width="160" relative="1" as="geometry"><mxPoint x="650" y="855" as="sourcePoint"/><mxPoint x="600" y="895" as="targetPoint"/></mxGeometry></mxCell><mxCell id="98" value="1" style="endArrow=open;html=1;endSize=12;startArrow=diamondThin;startSize=14;startFill=0;edgeStyle=orthogonalEdgeStyle;align=left;verticalAlign=bottom;rounded=0;exitX=0;exitY=0.5;exitDx=0;exitDy=0;entryX=1;entryY=0.25;entryDx=0;entryDy=0;" edge="1" parent="1" source="4" target="18"><mxGeometry x="-0.6263" y="-3" relative="1" as="geometry"><mxPoint x="280" y="180" as="sourcePoint"/><mxPoint x="440" y="180" as="targetPoint"/><mxPoint as="offset"/></mxGeometry></mxCell><mxCell id="99" value="1" style="endArrow=open;html=1;endSize=12;startArrow=diamondThin;startSize=14;startFill=0;align=left;verticalAlign=bottom;rounded=0;entryX=0.573;entryY=0.002;entryDx=0;entryDy=0;entryPerimeter=0;" edge="1" parent="1" source="6" target="2"><mxGeometry x="-0.1953" y="-14" relative="1" as="geometry"><mxPoint x="420" y="180" as="sourcePoint"/><mxPoint x="580" y="180" as="targetPoint"/><mxPoint as="offset"/></mxGeometry></mxCell><mxCell id="100" value="" style="endArrow=block;dashed=1;endFill=0;endSize=12;html=1;rounded=0;exitX=1;exitY=0.25;exitDx=0;exitDy=0;entryX=0.635;entryY=1.004;entryDx=0;entryDy=0;entryPerimeter=0;" edge="1" parent="1" source="22" target="18"><mxGeometry width="160" relative="1" as="geometry"><mxPoint x="230" y="310" as="sourcePoint"/><mxPoint x="390" y="310" as="targetPoint"/><Array as="points"><mxPoint x="280" y="268"/></Array></mxGeometry></mxCell><mxCell id="101" value="" style="endArrow=block;dashed=1;endFill=0;endSize=12;html=1;rounded=0;exitX=1;exitY=0.25;exitDx=0;exitDy=0;entryX=0.773;entryY=1.007;entryDx=0;entryDy=0;entryPerimeter=0;" edge="1" parent="1" source="34" target="18"><mxGeometry width="160" relative="1" as="geometry"><mxPoint x="220" y="260" as="sourcePoint"/><mxPoint x="380" y="260" as="targetPoint"/><Array as="points"><mxPoint x="310" y="398"/></Array></mxGeometry></mxCell><mxCell id="102" value="" style="endArrow=block;dashed=1;endFill=0;endSize=12;html=1;rounded=0;exitX=1;exitY=0.25;exitDx=0;exitDy=0;entryX=0.907;entryY=1.028;entryDx=0;entryDy=0;entryPerimeter=0;" edge="1" parent="1" source="36" target="18"><mxGeometry width="160" relative="1" as="geometry"><mxPoint x="200" y="410" as="sourcePoint"/><mxPoint x="360" y="410" as="targetPoint"/><Array as="points"><mxPoint x="340" y="528"/></Array></mxGeometry></mxCell></root></mxGraphModel></diagram></mxfile>